{
  "asset": {
    "generator": "Khronos glTF Blender I/O v3.2.43",
    "version": "2.0"
  },
  "scene": 0,
  "scenes": [
    {
      "name": "Scene",
      "nodes": [
        0
      ]
    }
  ],
  "nodes": [
    {
      "mesh": 0,
      "name": "sphere_gltf"
    }
  ],
  "materials": [
    {
      "doubleSided": true,
      "name": "bark_willow",
      "normalTexture": {
        "index": 0
      },
      "pbrMetallicRoughness": {
        "baseColorTexture": {
          "index": 1
        },
        "metallicFactor": 0,
        "metallicRoughnessTexture": {
          "index": 2
        }
      }
    }
  ],
  "meshes": [
    {
      "name": "Sphere.001",
      "primitives": [
        {
          "attributes": {
            "POSITION": 0,
            "NORMAL": 1,
            "TEXCOORD_0": 2
          },
          "indices": 3,
          "material": 0
        }
      ]
    }
  ],
  "textures": [
    {
      "sampler": 0,
      "source": 0
    },
    {
      "sampler": 0,
      "source": 1
    },
    {
      "sampler": 0,
      "source": 2
    }
  ],
  "images": [
    {
      "mimeType": "image/jpeg",
      "name": "bark_willow_nor_gl_8k",
      "uri": "textures/bark_willow_nor_gl_1k.jpg"
    },
    {
      "mimeType": "image/jpeg",
      "name": "bark_willow_diff_8k",
      "uri": "textures/bark_willow_diff_1k.jpg"
    },
    {
      "mimeType": "image/jpeg",
      "name": "bark_willow_rough_8k",
      "uri": "textures/bark_willow_rough_1k.jpg"
    }
  ],
  "accessors": [
    {
      "bufferView": 0,
      "componentType": 5126,
      "count": 53882,
      "max": [
        0.5134931802749634,
        0.5074177384376526,
        0.49864792823791504
      ],
      "min": [
        -0.5134116411209106,
        -0.5064908266067505,
        -0.4986513555049896
      ],
      "type": "VEC3"
    },
    {
      "bufferView": 1,
      "componentType": 5126,
      "count": 53882,
      "type": "VEC3"
    },
    {
      "bufferView": 2,
      "componentType": 5126,
      "count": 53882,
      "type": "VEC2"
    },
    {
      "bufferView": 3,
      "componentType": 5123,
      "count": 322170,
      "type": "SCALAR"
    }
  ],
  "bufferViews": [
    {
      "buffer": 0,
      "byteLength": 646584,
      "byteOffset": 0
    },
    {
      "buffer": 0,
      "byteLength": 646584,
      "byteOffset": 646584
    },
    {
      "buffer": 0,
      "byteLength": 431056,
      "byteOffset": 1293168
    },
    {
      "buffer": 0,
      "byteLength": 644340,
      "byteOffset": 1724224
    }
  ],
  "samplers": [
    {
      "magFilter": 9729,
      "minFilter": 9987
    }
  ],
  "buffers": [
    {
      "byteLength": 2368564,
      "uri": "bark_willow.bin"
    }
  ]
}